<?xml version="1.0" encoding="UTF-8" standalone="no"?>
<svg
   xmlns:dc="http://purl.org/dc/elements/1.1/"
   xmlns:cc="http://creativecommons.org/ns#"
   xmlns:rdf="http://www.w3.org/1999/02/22-rdf-syntax-ns#"
   xmlns:svg="http://www.w3.org/2000/svg"
   xmlns="http://www.w3.org/2000/svg"
   viewBox="0 0 169.9875 128.77499"
   height="128.77499"
   width="169.9875"
   xml:space="preserve"
   version="1.1"
   id="svg4426"><metadata
     id="metadata4432"><rdf:RDF><cc:Work
         rdf:about=""><dc:format>image/svg+xml</dc:format><dc:type
           rdf:resource="http://purl.org/dc/dcmitype/StillImage" /><dc:title></dc:title></cc:Work></rdf:RDF></metadata><defs
     id="defs4430"><radialGradient
       id="radialGradient4440"
       spreadMethod="pad"
       gradientTransform="matrix(110.499,0,0,-110.499,757.212,821.234)"
       gradientUnits="userSpaceOnUse"
       r="1"
       cy="0"
       cx="0"
       fy="0"
       fx="0"><stop
         id="stop4442"
         offset="0"
         style="stop-opacity:1;stop-color:#f8ed45" /><stop
         id="stop4444"
         offset="0.3"
         style="stop-opacity:1;stop-color:#f8ed45" /><stop
         id="stop4446"
         offset="1"
         style="stop-opacity:1;stop-color:#f9ac1d" /></radialGradient><clipPath
       id="clipPath4454"
       clipPathUnits="userSpaceOnUse"><path
         id="path4456"
         d="M 233.316,266.219 325.688,548.742 373.805,401.59 C 323.191,355.98 275.98,310.008 233.316,266.219 Z m 848.174,-143.153 151.84,231.301 c 55,84.02 82.51,154.199 82.51,210.555 0,61.406 -21.44,109.406 -64.28,143.992 -40,32.281 -108.13,49.484 -178.15,51.641 l -0.02,0.234 c -1.67,0 -3.35,-0.094 -5.03,-0.105 -1.61,0.027 -3.22,0.089 -4.83,0.105 l 0.03,-0.234 C 867.629,756.645 660,636.371 480.676,492.609 l -89.188,257.356 -131.593,0 L 0,0 146.27,0 c 0,0 105.121,142.754 262.597,294.379 L 505.117,0 651.383,0 515.918,390.906 c 55.195,46.481 114.309,91.09 175.883,129.735 l 0,-520.641 131.594,0 0,591.375 c 84.003,37.215 170.218,59.449 255.055,57.566 67.15,0 100.72,-28.019 100.72,-84.019 0,-47.246 -23.45,-105.445 -70.35,-174.609 L 873.98,44.6211 l 0,-38.44922 485.89,0 0,116.89412 -278.38,0 z" /></clipPath><radialGradient
       id="radialGradient4458"
       spreadMethod="pad"
       gradientTransform="matrix(-653.864,-511.119,-511.119,653.864,753.999,607.196)"
       gradientUnits="userSpaceOnUse"
       r="1"
       cy="0"
       cx="0"
       fy="0"
       fx="0"><stop
         id="stop4460"
         offset="0"
         style="stop-opacity:1;stop-color:#54acd4" /><stop
         id="stop4462"
         offset="1"
         style="stop-opacity:1;stop-color:#253a73" /></radialGradient></defs><g
     transform="matrix(1.25,0,0,-1.25,0,128.775)"
     id="g4434"><g
       transform="scale(0.1,0.1)"
       id="g4436"><path
         id="path4438"
         style="fill:#fae347;fill-opacity:1;fill-rule:nonzero;stroke:none"
         d="m 900.738,871.02 -44.39,8.996 41.297,36.504 c 1.695,1.496 2.175,3.949 1.168,5.968 -1.008,2.024 -3.204,3.09 -5.473,2.676 l -51.707,-10.492 32.894,47.68 c 1.313,1.906 1.149,4.464 -0.394,6.183 -1.555,1.727 -4.09,2.168 -6.106,1.055 l -55.168,-29.899 14.563,64.019 c 0.523,2.29 -0.613,4.63 -2.738,5.63 -2.11,1 -4.649,0.4 -6.09,-1.46 l -41.793,-53.97 -14.692,72.26 c -0.472,2.33 -2.519,4 -4.898,4 -2.375,0 -4.422,-1.67 -4.898,-4 l -14.692,-72.26 -41.793,53.97 c -1.43,1.86 -3.973,2.46 -6.086,1.46 -2.125,-1 -3.262,-3.34 -2.738,-5.63 l 14.559,-64.019 -55.168,29.899 c -2.04,1.113 -4.555,0.672 -6.102,-1.055 -1.543,-1.719 -1.707,-4.277 -0.395,-6.183 l 32.899,-47.68 -51.711,10.492 c -2.258,0.41 -4.465,-0.652 -5.477,-2.676 -1.004,-2.019 -0.527,-4.472 1.168,-5.968 l 41.297,-36.504 -44.386,-8.996 c -2.133,-0.434 -3.747,-2.2 -3.981,-4.368 -0.234,-2.16 0.957,-4.226 2.949,-5.109 l 41.52,-18.352 -36.574,-18.671 c -1.922,-0.981 -2.997,-3.09 -2.664,-5.223 0.335,-2.137 2,-3.817 4.132,-4.164 l 45.719,-7.461 -33.418,-34.524 c -1.543,-1.597 -1.851,-4.023 -0.746,-5.953 1.098,-1.925 3.313,-2.898 5.508,-2.386 l 50.566,12.121 -14.695,-33.157 c -0.859,-1.945 -0.402,-4.214 1.141,-5.668 1.558,-1.46 3.859,-1.761 5.734,-0.796 l 47.473,24.632 c 0.457,0.235 61.183,0.282 61.718,0 l 47.477,-24.632 c 0.73,-0.375 1.519,-0.563 2.305,-0.563 1.246,0 2.476,0.465 3.425,1.359 1.543,1.454 2.004,3.723 1.145,5.668 l -14.695,33.157 50.566,-12.121 c 2.176,-0.508 4.402,0.461 5.508,2.386 1.101,1.93 0.793,4.356 -0.75,5.953 l -33.418,34.524 45.719,7.461 c 2.132,0.347 3.796,2.027 4.136,4.164 0.332,2.133 -0.742,4.242 -2.668,5.223 l -36.57,18.671 41.52,18.352 c 1.992,0.883 3.179,2.949 2.949,5.109 -0.239,2.168 -1.848,3.934 -3.981,4.368" /><path
         id="path4448"
         style="fill:url(#radialGradient4440);fill-opacity:1;fill-rule:evenodd;stroke:none"
         d="m 716.023,693.648 c -0.902,6.395 -1.371,12.442 -2.64,18.321 -7.11,32.855 -16.82,64.91 -31.328,95.32 -5.02,10.535 -10.703,20.758 -13.035,32.332 -4.75,23.574 -1.278,45.828 11.332,66.434 13.402,21.918 32.988,35.519 57.949,40.66 29.039,5.976 55.262,-0.723 77.976,-20.07 16.02,-13.649 25.559,-31.133 29.504,-51.625 4.059,-21.032 0.66,-41.051 -9.883,-59.684 -8.21,-14.52 -16.519,-28.969 -21.425,-45.035 -3.785,-12.403 -4.868,-16.903 -9.899,-33.594 -0.336,-1.098 -1.383,-2.543 -2.363,-2.801 -25.57,-6.777 -48.738,-18.883 -71.43,-32.039 -4.765,-2.762 -9.629,-5.371 -14.758,-8.219" /><g
         id="g4450"><g
           clip-path="url(#clipPath4454)"
           id="g4452"><path
             id="path4464"
             style="fill:url(#radialGradient4458);fill-opacity:1;fill-rule:nonzero;stroke:none"
             d="M 233.316,266.219 325.688,548.742 373.805,401.59 C 323.191,355.98 275.98,310.008 233.316,266.219 Z m 848.174,-143.153 151.84,231.301 c 55,84.02 82.51,154.199 82.51,210.555 0,61.406 -21.44,109.406 -64.28,143.992 -40,32.281 -108.13,49.484 -178.15,51.641 l -0.02,0.234 c -1.67,0 -3.35,-0.094 -5.03,-0.105 -1.61,0.027 -3.22,0.089 -4.83,0.105 l 0.03,-0.234 C 867.629,756.645 660,636.371 480.676,492.609 l -89.188,257.356 -131.593,0 L 0,0 146.27,0 c 0,0 105.121,142.754 262.597,294.379 L 505.117,0 651.383,0 515.918,390.906 c 55.195,46.481 114.309,91.09 175.883,129.735 l 0,-520.641 131.594,0 0,591.375 c 84.003,37.215 170.218,59.449 255.055,57.566 67.15,0 100.72,-28.019 100.72,-84.019 0,-47.246 -23.45,-105.445 -70.35,-174.609 L 873.98,44.6211 l 0,-38.44922 485.89,0 0,116.89412 -278.38,0" /></g></g><path
         id="path4466"
         style="fill:#417fb5;fill-opacity:1;fill-rule:evenodd;stroke:none"
         d="m 716.145,693.297 c 0.296,-1.289 0.793,-2.442 1.406,-3.504 28.687,16.227 57.652,30.988 86.75,44.32 0.367,1.149 0.797,2.278 1.129,3.434 0.371,1.305 0.722,2.609 1.09,3.91 l -100.707,0 c 2.5,-9.984 4.761,-20.035 6.57,-30.223 1.07,-6.011 2.39,-11.98 3.762,-17.937" /></g></g></svg>